<svg xmlns="http://www.w3.org/2000/svg" viewBox="0 0 1024 1024" version="1.1">
  <path
    d="M 109.260 26.974 C 89.880 35.034, 72.264 46.633, 58.427 60.445 C 39.609 79.228, 27.829 101.299, 21.945 128.801 C 19.068 142.247, 18.207 172.548, 20.310 186.322 C 21.135 191.724, 21.965 196.284, 22.155 196.456 C 22.345 196.628, 26.621 198.830, 31.659 201.349 C 95.033 233.038, 158.180 293.495, 202.300 364.721 C 231.188 411.357, 249.916 450.993, 267.461 502.629 C 267.818 503.681, 281.834 508.499, 282.526 507.807 C 282.984 507.350, 268.277 465.042, 261.563 447.500 C 252.324 423.361, 251.930 422.128, 252.598 419.467 C 254.121 413.397, 263.602 410.750, 267.701 415.250 C 268.828 416.488, 270.269 418.506, 270.903 419.736 C 274.561 426.832, 297.702 491.209, 302.434 507.454 L 304.751 515.407 317.626 520.722 C 324.707 523.645, 335.908 528.761, 342.518 532.090 L 354.536 538.143 365.956 536.550 C 372.237 535.674, 377.575 534.758, 377.818 534.515 C 378.061 534.272, 377.074 530.344, 375.624 525.787 C 368.863 504.536, 368.026 475.565, 373.536 453.500 C 376.762 440.585, 380.576 430.216, 386.547 418.134 C 392.677 405.728, 392.743 405.508, 390.724 404.094 C 389.596 403.304, 384.134 399.045, 378.586 394.629 C 334.073 359.201, 302.594 311.418, 289.397 259.247 C 283.458 235.769, 281.636 220.597, 281.564 194.024 L 281.500 170.548 276.500 169.765 C 258.153 166.895, 226.422 158.506, 210.626 152.351 C 185.663 142.624, 164.774 129.860, 150.405 115.555 C 135.858 101.073, 127.208 86.213, 122.501 67.622 C 120.443 59.493, 120.008 55.419, 120.044 44.622 C 120.068 37.405, 120.457 29.587, 120.909 27.250 C 121.946 21.888, 121.513 21.878, 109.260 26.974 M 85.176 93.824 C 62.570 116.430, 54.579 152.056, 64.474 186.120 C 67.262 195.715, 69.316 198, 75.156 198 C 78 198, 79.771 197.320, 81.545 195.545 C 84.657 192.434, 84.712 188.522, 81.789 178.261 C 80.028 172.082, 79.572 167.850, 79.551 157.500 C 79.513 138.110, 82.905 127.461, 93.589 113.435 C 101.098 103.576, 102 101.937, 102 98.155 C 102 94.149, 97.127 90, 92.423 90 C 89.789 90, 88.119 90.881, 85.176 93.824 M 351.140 134.535 C 347.957 137.214, 346.749 141.275, 345.495 153.500 C 343.833 169.710, 344.695 172.754, 351.593 175.031 C 358.528 177.320, 363.995 171.265, 363.998 161.291 C 363.999 158.426, 364.505 152.689, 365.121 148.541 C 366.442 139.662, 365.350 135.749, 360.909 133.453 C 356.907 131.383, 354.580 131.641, 351.140 134.535 M 141 175.021 C 132.442 176.206, 121.180 178.936, 117.780 180.650 C 109.594 184.776, 112.273 198, 121.296 198 C 123.158 198, 126.844 197.349, 129.487 196.554 C 144.184 192.131, 171.841 192.049, 191.569 196.371 C 205.604 199.446, 220.740 204.506, 235.180 210.949 C 248.932 217.085, 252.638 217.408, 256.510 212.805 C 258.658 210.253, 259.088 208.928, 258.648 206.216 C 257.845 201.269, 256.556 200.159, 245.500 194.895 C 229.124 187.099, 206.545 179.875, 187.500 176.339 C 177.891 174.555, 150.062 173.766, 141 175.021 M 353.923 222.923 C 351.807 225.039, 351 226.811, 351 229.343 C 351 236.505, 363.736 275.089, 368.500 282.360 C 371.661 287.185, 378.955 288.138, 383.230 284.285 C 386.803 281.066, 386.400 277.213, 381.110 264 C 378.357 257.125, 374.441 245.650, 372.407 238.500 C 369.503 228.292, 368.093 224.909, 365.839 222.750 C 361.957 219.031, 357.755 219.092, 353.923 222.923 M 753 228.027 C 735.712 229.082, 700.311 232.658, 690.517 234.341 C 684.431 235.386, 683.441 235.858, 682.806 238.020 C 682.406 239.384, 680.497 246.245, 678.564 253.268 C 674.370 268.505, 671.786 275.265, 663.551 292.541 C 639.926 342.108, 593.743 404.292, 535.311 465.212 C 519.865 481.315, 518.893 482.661, 508.003 503 C 493.892 529.357, 493.158 530.614, 487.178 538.666 C 480.222 548.034, 475.371 552.453, 468.565 555.622 C 462.342 558.520, 457.708 558.582, 444 555.954 C 423.043 551.935, 387.607 552.199, 361.423 556.570 L 352.347 558.085 335.923 550.022 C 292.123 528.518, 239.716 513.146, 204 511.326 L 192.500 510.739 190.649 516.120 C 187.785 524.448, 181.146 538.216, 178.782 540.732 C 176.649 543.003, 171.237 543.796, 167.545 542.379 C 165.666 541.658, 163 536.918, 163 534.300 C 163 533.310, 165.196 527.550, 167.881 521.500 C 172.365 511.395, 180 490.272, 180 487.973 C 180 484.587, 168.152 490.181, 160.488 497.185 C 150.131 506.651, 143.224 522.413, 140.897 541.894 C 139.375 554.640, 137.584 557.455, 131 557.455 C 122.177 557.455, 120.143 550.150, 123.548 530.684 C 126.619 513.131, 133.629 498.206, 144.436 486.217 L 151 478.934 151 464.967 C 151 457.285, 150.615 451, 150.145 451 C 149.675 451, 147.063 453.363, 144.340 456.250 C 130.320 471.120, 118.425 496.156, 111.098 526.213 C 106.718 544.184, 104.973 557.856, 103.979 582 C 103.492 593.825, 102.793 609.640, 102.424 617.144 C 101.647 632.977, 100.067 631.014, 115.855 633.833 L 126.154 635.672 127.663 633.586 C 128.493 632.439, 131.799 627.371, 135.009 622.324 C 138.219 617.277, 141.892 612.510, 143.173 611.730 C 144.453 610.950, 149.037 608.333, 153.360 605.915 C 162.368 600.875, 172.356 591.609, 177.576 583.449 C 179.551 580.361, 180.978 577.644, 180.746 577.412 C 180.514 577.180, 177.939 577.443, 175.025 577.995 C 166.485 579.615, 163.197 579.288, 160.455 576.545 C 157.108 573.198, 157.001 566.280, 160.250 563.251 C 165.346 558.501, 197.900 555.081, 220.824 556.888 C 262.528 560.176, 297.506 573.906, 327.146 598.623 C 340.798 610.008, 342.848 613.526, 339.547 619.909 C 337.832 623.225, 333.045 625.479, 329.569 624.607 C 328.211 624.266, 324.265 621.425, 320.800 618.293 C 310.738 609.199, 310.035 608.631, 309.496 609.171 C 309.214 609.453, 310.362 614.367, 312.047 620.092 C 325.998 667.480, 342.355 691.248, 376.208 713.327 C 384.069 718.453, 393.696 724.928, 397.602 727.715 L 404.703 732.783 421.602 729.365 C 447.048 724.217, 450.457 723.853, 458.141 725.461 C 461.783 726.222, 467.049 728.005, 469.844 729.421 C 474.810 731.937, 503.014 757.289, 505.022 761.041 C 508.522 767.581, 501.654 776.385, 494.459 774.579 C 493.041 774.223, 485.945 768.265, 478.690 761.339 C 463.933 747.250, 458.648 744.025, 450.287 744.010 C 443.484 743.997, 406.643 751.631, 401.947 754.027 C 396.589 756.761, 392.273 762.254, 390.387 768.741 C 388.948 773.689, 388.874 775.844, 389.840 784.487 C 392.668 809.786, 394.594 813.666, 408.215 821.492 C 422.054 829.444, 428.203 836.553, 432.116 849.125 C 435.380 859.611, 434.283 867.172, 429.097 869.948 C 428.107 870.478, 420.872 871.850, 413.018 872.997 C 397.801 875.220, 395.015 876.185, 390.872 880.661 C 386.431 885.459, 385.716 887.946, 385.204 900.377 C 384.761 911.138, 384.893 912.449, 386.547 913.658 C 388.856 915.347, 391.993 915.399, 392.022 913.750 C 392.070 910.951, 397.808 901.702, 402.466 896.917 C 412.185 886.932, 420.943 884.439, 442.523 885.518 L 456.790 886.231 457.375 883.366 C 457.969 880.455, 461.717 856.307, 467.055 821 C 470.189 800.266, 471.235 797.422, 476.354 795.715 C 479.872 794.543, 483.418 795.459, 485.972 798.201 C 488.456 800.866, 488.592 806.412, 486.506 820 L 485.048 829.500 487.995 840.593 C 503.094 897.414, 531.169 944.673, 568 975.261 C 579.062 984.447, 586.930 988.488, 603.500 993.493 C 622.740 999.305, 635.874 1001.298, 655.500 1001.384 C 687.694 1001.526, 711.208 994.985, 734.500 979.409 C 748.845 969.816, 779.083 947.333, 786.152 941.004 C 803.159 925.777, 813.826 907.143, 816.868 887.344 C 817.447 883.580, 818.233 874.484, 818.616 867.131 C 819.296 854.069, 819.267 853.787, 817.356 854.810 C 816.280 855.385, 809.736 861.401, 802.813 868.178 C 780.711 889.815, 773.560 904.597, 770.488 935 C 769.479 944.984, 768.338 947.482, 761.855 953.905 C 745.252 970.354, 721.563 981.459, 694.502 985.477 C 644.700 992.872, 604.704 981.513, 579.909 952.932 C 571.976 943.789, 568.493 938.334, 562.483 925.649 C 552.088 903.706, 550 892.832, 550 860.652 C 550 790.789, 537.501 724.989, 519.883 702.105 C 513.129 693.332, 512 691.520, 512 689.450 C 512 681.621, 537.534 657.238, 559.042 644.528 C 591.388 625.415, 637.147 615.764, 680.506 618.911 C 689.560 619.568, 699.746 620.553, 703.140 621.100 C 706.535 621.647, 709.854 621.886, 710.515 621.633 C 711.176 621.379, 712.016 619.220, 712.382 616.836 C 714.925 600.260, 726.196 567.962, 737.089 546.037 C 749.240 521.578, 761.123 504.955, 779.491 486.719 C 806.745 459.662, 838.786 442.207, 876.915 433.647 C 883.193 432.237, 888.654 430.560, 889.050 429.919 C 889.446 429.279, 890.070 425.998, 890.437 422.628 C 891.288 414.811, 895.172 399.245, 898.431 390.586 C 907.348 366.898, 923.595 348.412, 945.748 336.749 C 960.923 328.760, 975.305 324.812, 994.250 323.435 C 1000.789 322.959, 1004 322.330, 1004 321.523 C 1004 320.861, 1001.807 316.670, 999.126 312.210 C 988.171 293.982, 972.192 277.776, 953.174 265.604 C 923.874 246.852, 884.593 234.814, 835.153 229.434 C 818.413 227.612, 772.652 226.829, 753 228.027 M 702.360 252.460 C 699.809 254.247, 698.518 257.528, 697.036 266 C 692.216 293.534, 675.236 330.298, 649.770 368.335 C 626.759 402.705, 587.992 450.046, 553.392 486.027 C 541.624 498.265, 539.564 501.414, 540.608 505.572 C 541.480 509.050, 546.573 513, 550.183 513 C 553.855 513, 561.606 505.803, 581.414 484 C 658.206 399.478, 702.073 330.824, 714.394 275.880 C 717.781 260.774, 717.776 257.049, 714.364 253.636 C 711.337 250.609, 705.780 250.065, 702.360 252.460 M 728.383 295.585 C 719.624 299.902, 722.418 311.783, 732.600 313.517 C 747.176 316.001, 767.594 322.749, 781.085 329.543 C 803.605 340.883, 824.332 360.182, 838.377 382.889 C 844.867 393.380, 847.525 399.065, 851.444 410.833 C 853.710 417.635, 854.794 419.513, 857.359 421.077 C 861.331 423.499, 863.681 423.492, 867.696 421.044 C 874.281 417.029, 872.901 409.732, 860.973 385.500 C 852.434 368.152, 842.226 354.335, 827.297 339.917 C 805.887 319.240, 780.230 305.534, 748 297.557 C 733.835 294.051, 731.891 293.856, 728.383 295.585 M 394.292 311.204 C 391.556 314.135, 390.624 317.906, 391.861 321.039 C 393.284 324.638, 405.130 339.101, 415.487 349.881 C 433.231 368.351, 463.916 392, 470.137 392 C 474.491 392, 479 387.235, 479 382.633 C 479 378.160, 476.660 375.490, 466.833 368.755 C 449.105 356.604, 430.539 339.394, 414.235 320 C 405.655 309.792, 405.284 309.492, 400.922 309.204 C 397.300 308.965, 396.022 309.351, 394.292 311.204 M 683.277 407.973 C 678.074 411.145, 678.084 413.682, 683.362 428.954 C 691.449 452.357, 694.736 475.880, 693.609 502.292 C 692.471 528.967, 689.670 547.758, 682.949 573.802 C 680.777 582.217, 679 590.014, 679 591.128 C 679 592.242, 680.315 594.469, 681.923 596.077 C 687.674 601.828, 695.514 599.049, 698.399 590.237 C 707.241 563.234, 713.925 513.956, 712.606 485.498 C 711.504 461.735, 708.037 442.584, 701.219 422.597 C 695.774 406.635, 691.365 403.041, 683.277 407.973 M 944 495.918 C 930.856 498.728, 920.337 501.786, 910.500 505.658 C 883.564 516.261, 849 539.696, 849 547.356 C 849 554.539, 855.209 559.203, 861.335 556.623 C 863.076 555.890, 866.525 553.578, 869 551.487 C 879.743 542.406, 902.178 529.405, 918.577 522.755 C 927.883 518.982, 942.509 515.209, 954.500 513.489 C 963.156 512.248, 965.974 511.442, 967.726 509.706 C 971.190 506.272, 971.566 502.125, 968.787 498 C 966.499 494.604, 966.221 494.494, 959.465 494.301 C 955.634 494.191, 948.675 494.919, 944 495.918 M 826.263 568.658 C 825.021 569.160, 815.327 582.499, 813.079 586.799 C 811.337 590.132, 813.361 595.618, 817.034 597.517 C 823.497 600.860, 827.126 598.885, 834.962 587.764 C 841.067 579.098, 841.534 575.380, 837.077 570.923 C 834.262 568.108, 829.889 567.192, 826.263 568.658 M 117.329 580.458 C 113.396 582.168, 112 584.671, 112 590.011 C 112 593.257, 112.633 594.787, 114.923 597.077 C 119.150 601.304, 124.068 601.132, 128.600 596.600 C 134.050 591.150, 132.902 584.069, 125.989 580.494 C 122.489 578.685, 121.416 578.680, 117.329 580.458 M 790.034 635.812 C 785.882 639.964, 777.801 666.075, 773.511 689.201 C 772.046 697.102, 772.041 698.178, 773.459 700.921 C 777.934 709.574, 789.775 706.611, 791.520 696.400 C 793.376 685.535, 797.564 668.492, 801.072 657.516 C 805.856 642.554, 805.983 639.829, 802.077 635.923 C 798.190 632.036, 793.850 631.997, 790.034 635.812 M 363.035 742.750 C 353.939 768.364, 345.017 794.658, 344.436 797.569 C 343.545 802.024, 345.685 806.165, 354.734 817.500 C 365.510 830.999, 365.692 831.135, 375.065 832.626 C 379.476 833.328, 385.116 834.916, 387.597 836.156 C 392.948 838.828, 400.525 846.618, 402.597 851.577 C 404.062 855.084, 404.110 855.106, 408.787 854.428 C 411.379 854.051, 413.646 853.618, 413.824 853.465 C 414.508 852.875, 410.927 847.081, 408.195 844.356 C 406.619 842.785, 402.069 839.716, 398.083 837.536 C 389.161 832.657, 380.818 824.422, 377.333 817.056 C 374.472 811.008, 371.500 795.679, 370.427 781.436 C 369.388 767.644, 373.245 755.582, 381.618 746.440 C 383.466 744.423, 384.727 742.367, 384.420 741.870 C 383.625 740.584, 369.279 731, 368.149 731 C 367.632 731, 365.330 736.288, 363.035 742.750 M 477.994 876.050 C 477.991 876.298, 477.117 881.675, 476.051 888 C 474.297 898.413, 473.824 899.760, 471.041 902.250 C 468.778 904.276, 466.919 905, 463.984 905 C 461.793 905, 460 905.240, 460 905.533 C 460 906.743, 465.560 916.967, 469.770 923.500 C 480.761 940.553, 498.945 959.019, 515.664 970.106 C 525.427 976.580, 553.906 991.427, 554.816 990.517 C 555.018 990.315, 550.354 985.504, 544.452 979.825 C 519.364 955.687, 496.471 921.012, 483.496 887.500 C 480.164 878.894, 478.015 874.422, 477.994 876.050 M 437.967 911.750 C 437.949 914.362, 437.527 919.650, 437.028 923.500 C 436.529 927.350, 436.472 930.855, 436.900 931.290 C 437.329 931.724, 438.935 932.174, 440.469 932.290 C 443 932.481, 443.428 932.006, 445.102 927.151 L 446.946 921.802 443.223 914.424 C 441.175 910.367, 439.163 907.036, 438.750 907.023 C 438.337 907.011, 437.985 909.138, 437.967 911.750"
    stroke="none"
    fill="white"
    fill-rule="evenodd"
  ></path>
</svg>
